<svg xmlns="http://www.w3.org/2000/svg" viewBox="0 0 620 420">
  <defs>
    <linearGradient id="bike" x1="0" y1="0" x2="1" y2="1">
      <stop offset="0" stop-color="#F59E0B"/>
      <stop offset="1" stop-color="#F97316"/>
    </linearGradient>
    <filter id="shadow" x="-20%" y="-20%" width="140%" height="140%">
      <feDropShadow dx="0" dy="16" stdDeviation="18" flood-color="#020617" flood-opacity="0.28"/>
    </filter>
  </defs>
  <circle cx="472" cy="80" r="60" fill="#F59E0B" opacity=".18"/>
  <circle cx="98" cy="115" r="34" fill="#fff" opacity=".09"/>
  <g filter="url(#shadow)">
    <path d="M190 250h190l70-70 64 20-36 60H350l-50 52H180z" fill="url(#bike)"/>
    <path d="M230 205h115l42 45H214z" fill="#fef3c7" opacity=".9"/>
    <circle cx="190" cy="310" r="58" fill="#0F172A" stroke="#F8FAFC" stroke-width="14"/>
    <circle cx="460" cy="310" r="58" fill="#0F172A" stroke="#F8FAFC" stroke-width="14"/>
    <circle cx="190" cy="310" r="18" fill="#F59E0B"/>
    <circle cx="460" cy="310" r="18" fill="#F59E0B"/>
    <path d="M292 147c20-18 48-16 66 2 23 22 20 60-4 78l-19 15-80-48z" fill="#E2E8F0"/>
    <circle cx="326" cy="118" r="34" fill="#FCD34D"/>
    <path d="M291 117c12-42 70-36 83-4l-15 12c-19-14-36-15-58 1z" fill="#0F172A"/>
    <path d="M250 198l60 36 30 62" stroke="#F8FAFC" stroke-width="18" stroke-linecap="round"/>
    <path d="M330 224l76 16" stroke="#F8FAFC" stroke-width="18" stroke-linecap="round"/>
    <path d="M128 247h62" stroke="#F8FAFC" stroke-width="12" stroke-linecap="round" opacity=".78"/>
  </g>
</svg>
